<svg xmlns="http://www.w3.org/2000/svg" xmlns:xlink="http://www.w3.org/1999/xlink" xml:space="preserve" version="1.1" style="shape-rendering:geometricPrecision;text-rendering:geometricPrecision;image-rendering:optimizeQuality;" viewBox="0 0 1342 1303" x="0px" y="0px" fill-rule="evenodd" clip-rule="evenodd"><defs><style type="text/css">
   
    .fil0 {fill:black;fill-rule:nonzero}
   
  </style></defs><g><path class="fil0" d="M671 181c30,-48 63,-87 101,-116 57,-43 124,-65 213,-65 98,0 187,38 252,100 65,62 105,148 105,243 0,161 -82,319 -205,477 -120,153 -278,304 -436,455l-30 28 -30 -28c-158,-151 -316,-302 -436,-455 -123,-157 -205,-316 -205,-477 0,-95 40,-181 105,-243 65,-62 154,-100 252,-100 152,0 238,60 314,181zm154 -47c-43,33 -79,85 -115,154l-38 73 -38 -73c-70,-134 -139,-202 -276,-202 -75,0 -143,29 -192,76 -48,46 -78,110 -78,181 0,139 75,281 187,424 108,138 252,277 397,417 146,-140 289,-279 397,-417 112,-143 187,-285 187,-424 0,-71 -30,-135 -78,-181 -49,-47 -117,-76 -192,-76 -68,0 -119,16 -160,47z"></path></g></svg>