<svg xmlns:dc="http://purl.org/dc/elements/1.1/" xmlns:cc="http://creativecommons.org/ns#" xmlns:rdf="http://www.w3.org/1999/02/22-rdf-syntax-ns#" xmlns:svg="http://www.w3.org/2000/svg" xmlns="http://www.w3.org/2000/svg" xmlns:sodipodi="http://sodipodi.sourceforge.net/DTD/sodipodi-0.dtd" xmlns:inkscape="http://www.inkscape.org/namespaces/inkscape" version="1.1" x="0px" y="0px" viewBox="0 0 100 100"><g transform="translate(0,-952.36218)"><path style="font-size:medium;font-style:normal;font-variant:normal;font-weight:normal;font-stretch:normal;text-indent:0;text-align:start;text-decoration:none;line-height:normal;letter-spacing:normal;word-spacing:normal;text-transform:none;direction:ltr;block-progression:tb;writing-mode:lr-tb;text-anchor:start;baseline-shift:baseline;opacity:1;color:#000000;fill:#000000;fill-opacity:1;stroke:none;stroke-width:3.99999976000000010;marker:none;visibility:visible;display:inline;overflow:visible;enable-background:accumulate;font-family:Sans;-inkscape-font-specification:Sans" d="M 7.8125 16 A 2.0001999 2.0001999 0 0 0 6 18 L 6 72 A 2.0001999 2.0001999 0 0 0 8 74 L 37.28125 74 L 48.71875 83.53125 A 2.0001999 2.0001999 0 0 0 51.28125 83.53125 L 62.71875 74 L 92 74 A 2.0001999 2.0001999 0 0 0 94 72 L 94 18 A 2.0001999 2.0001999 0 0 0 92 16 L 8 16 A 2.0001999 2.0001999 0 0 0 7.8125 16 z M 10 20 L 90 20 L 90 70 L 62 70 A 2.0001999 2.0001999 0 0 0 60.71875 70.46875 L 50 79.40625 L 39.28125 70.46875 A 2.0001999 2.0001999 0 0 0 38 70 L 10 70 L 10 20 z M 17.8125 31 A 2.0021961 2.0021961 0 1 0 18 35 L 82 35 A 2.0001999 2.0001999 0 1 0 82 31 L 18 31 A 2.0001999 2.0001999 0 0 0 17.8125 31 z M 17.8125 43 A 2.0021961 2.0021961 0 1 0 18 47 L 82 47 A 2.0001999 2.0001999 0 1 0 82 43 L 18 43 A 2.0001999 2.0001999 0 0 0 17.8125 43 z M 17.8125 55 A 2.0021961 2.0021961 0 1 0 18 59 L 52 59 A 2.0001999 2.0001999 0 1 0 52 55 L 18 55 A 2.0001999 2.0001999 0 0 0 17.8125 55 z " transform="translate(0,952.36218)"></path></g></svg>