<svg xmlns:dc="http://purl.org/dc/elements/1.1/" xmlns:cc="http://creativecommons.org/ns#" xmlns:rdf="http://www.w3.org/1999/02/22-rdf-syntax-ns#" xmlns:svg="http://www.w3.org/2000/svg" xmlns="http://www.w3.org/2000/svg" xmlns:sodipodi="http://sodipodi.sourceforge.net/DTD/sodipodi-0.dtd" xmlns:inkscape="http://www.inkscape.org/namespaces/inkscape" version="1.1" x="0px" y="0px" viewBox="0 0 100 100"><g transform="translate(0,-952.36218)"><path style="font-size:medium;font-style:normal;font-variant:normal;font-weight:normal;font-stretch:normal;text-indent:0;text-align:start;text-decoration:none;line-height:normal;letter-spacing:normal;word-spacing:normal;text-transform:none;direction:ltr;block-progression:tb;writing-mode:lr-tb;text-anchor:start;baseline-shift:baseline;opacity:1;color:#000000;fill:#000000;fill-opacity:1;stroke:none;stroke-width:6;marker:none;visibility:visible;display:inline;overflow:visible;enable-background:accumulate;font-family:Sans;-inkscape-font-specification:Sans" d="M 7.6875 15 A 3.0003 3.0003 0 0 0 5 18 L 5 72 A 3.0003 3.0003 0 0 0 8 75 L 36.90625 75 L 48.09375 84.3125 A 3.0003 3.0003 0 0 0 51.90625 84.3125 L 63.09375 75 L 92 75 A 3.0003 3.0003 0 0 0 95 72 L 95 18 A 3.0003 3.0003 0 0 0 92 15 L 8 15 A 3.0003 3.0003 0 0 0 7.6875 15 z M 11 21 L 89 21 L 89 69 L 62 69 A 3.0003 3.0003 0 0 0 60.09375 69.6875 L 50 78.09375 L 39.90625 69.6875 A 3.0003 3.0003 0 0 0 38 69 L 11 69 L 11 21 z M 17.6875 30 A 3.0040663 3.0040663 0 1 0 18 36 L 82 36 A 3.0003 3.0003 0 1 0 82 30 L 18 30 A 3.0003 3.0003 0 0 0 17.6875 30 z M 17.6875 42 A 3.0040663 3.0040663 0 1 0 18 48 L 82 48 A 3.0003 3.0003 0 1 0 82 42 L 18 42 A 3.0003 3.0003 0 0 0 17.6875 42 z M 17.6875 54 A 3.0040663 3.0040663 0 1 0 18 60 L 52 60 A 3.0003 3.0003 0 1 0 52 54 L 18 54 A 3.0003 3.0003 0 0 0 17.6875 54 z " transform="translate(0,952.36218)"></path></g></svg>