<svg xmlns="http://www.w3.org/2000/svg" xmlns:xlink="http://www.w3.org/1999/xlink" version="1.1" x="0px" y="0px" viewBox="0 0 100 100" enable-background="new 0 0 100 100" xml:space="preserve"><path d="M68.486,9.193c6.695,0,13.383,2.556,18.489,7.657c10.207,10.213,10.207,26.759,0,36.972v0.006L50.003,90.807L13.025,53.828  v-0.006c-10.207-10.213-10.207-26.759,0-36.972c5.107-5.1,11.801-7.657,18.489-7.657c6.688,0,13.376,2.556,18.483,7.657h0.006  C55.11,11.75,61.791,9.193,68.486,9.193 M68.486,7.193c-6.864,0-13.357,2.445-18.486,6.924c-5.129-4.479-11.622-6.924-18.486-6.924  c-7.513,0-14.581,2.927-19.903,8.241C0.843,26.21,0.648,43.618,11.025,54.632v0.018l0.586,0.592l36.979,36.979l1.414,1.414  l1.414-1.414L88.39,55.242l0.586-0.586v-0.024C99.352,43.618,99.157,26.21,88.39,15.436C83.067,10.12,75.999,7.193,68.486,7.193  L68.486,7.193z"></path></svg>