<svg xmlns:dc="http://purl.org/dc/elements/1.1/" xmlns:cc="http://creativecommons.org/ns#" xmlns:rdf="http://www.w3.org/1999/02/22-rdf-syntax-ns#" xmlns:svg="http://www.w3.org/2000/svg" xmlns="http://www.w3.org/2000/svg" xmlns:sodipodi="http://sodipodi.sourceforge.net/DTD/sodipodi-0.dtd" xmlns:inkscape="http://www.inkscape.org/namespaces/inkscape" version="1.1" x="0px" y="0px" viewBox="0 0 100 100"><g transform="translate(0,-952.36218)"><path style="text-indent:0;text-transform:none;direction:ltr;block-progression:tb;baseline-shift:baseline;color:#000000;enable-background:accumulate;" d="m 36.988256,960.35049 c -16.0044,0 -28.9999998,12.9955 -28.9999998,29 0,16.00441 12.9955998,29.00001 28.9999998,29.00001 7.6449,0 14.5979,-2.9705 19.7812,-7.8125 l 4.5313,4.5312 -2.125,2.125 a 1.0001,1.0001 0 0 0 0,1.4063 l 25.4375,25.4687 a 1.0001,1.0001 0 0 0 1.4375,0 l 5.6563,-5.6562 a 1.0001,1.0001 0 0 0 0,-1.4375 l -25.4688,-25.4375 a 1.0001,1.0001 0 0 0 -1.4062,0 l -2.0938,2.125 -4.5312,-4.5313 c 4.8332,-5.1817 7.7812,-12.14411 7.7812,-19.78121 0,-16.0045 -12.9957,-29 -29,-29 z m 0,2 c 14.9235,0 27,12.0764 27,27 0,14.92351 -12.0765,27.00001 -27,27.00001 -14.9236,0 -26.9999998,-12.0765 -26.9999998,-27.00001 0,-14.9236 12.0763998,-27 26.9999998,-27 z m 28.5312,51.31251 24.0626,24.0312 -4.25,4.25 -24.0313,-24.0625 4.2187,-4.2187 z" fill="#000000" fill-opacity="1" stroke="none" marker="none" visibility="visible" display="inline" overflow="visible"></path></g></svg>