<svg xmlns:dc="http://purl.org/dc/elements/1.1/" xmlns:cc="http://creativecommons.org/ns#" xmlns:rdf="http://www.w3.org/1999/02/22-rdf-syntax-ns#" xmlns:svg="http://www.w3.org/2000/svg" xmlns="http://www.w3.org/2000/svg" xmlns:sodipodi="http://sodipodi.sourceforge.net/DTD/sodipodi-0.dtd" xmlns:inkscape="http://www.inkscape.org/namespaces/inkscape" version="1.1" x="0px" y="0px" viewBox="0 0 100 100"><g transform="translate(0,-952.36218)"><path style="text-indent:0;text-transform:none;direction:ltr;block-progression:tb;baseline-shift:baseline;color:#000000;enable-background:accumulate;" d="m 37.008005,959.37019 c -16.544896,0 -29.9999961,13.4551 -29.9999961,30 0,16.54481 13.4551001,30.00001 29.9999961,30.00001 7.5598,0 14.4692,-2.808 19.75,-7.4375 l 3.125,3.125 -1.4062,1.4375 a 2.0002,2.0002 0 0 0 0,2.8437 l 25.4687,25.4375 a 2.0002,2.0002 0 0 0 2.8125,0 l 5.6562,-5.6562 a 2.0002,2.0002 0 0 0 0,-2.8125 l -25.4374,-25.4688 a 2.0002,2.0002 0 0 0 -2.8438,0 l -1.4062,1.4063 -3.1563,-3.1563 c 4.6205,-5.2786 7.4375,-12.16721 7.4375,-19.71871 0,-16.5449 -13.4552,-30 -30,-30 z m 0,4 c 14.383,0 26,11.6169 26,26 0,14.38311 -11.617,26.00001 -26,26.00001 -14.383096,0 -25.999996,-11.6169 -25.999996,-26.00001 0,-14.3831 11.6169,-26 25.999996,-26 z m 28.5312,51.71871 22.625,22.625 -2.8124,2.8125 -22.625,-22.625 2.8124,-2.8125 z" fill="#000000" fill-opacity="1" stroke="none" marker="none" visibility="visible" display="inline" overflow="visible"></path></g></svg>