<svg xmlns="http://www.w3.org/2000/svg" width="77.031" height="53.97" viewBox="0 0 77.031 53.97">
  <defs>
    <style>
      .cls-1 {
        fill: #fff;
        fill-rule: evenodd;
      }
    </style>
  </defs>
  <path id="speech_bubble_2" data-name="speech bubble 2" class="cls-1" d="M887.119,1034.99c15.545,0,28.146,9.27,28.146,20.71s-12.6,20.72-28.146,20.72a37.6,37.6,0,0,1-5.14-.35c-0.048.03-17.032,6.44-17.032,6.44s5.563-10.01,5.582-10.07c-7.006-3.77-11.557-9.86-11.557-16.74C858.972,1044.26,871.574,1034.99,887.119,1034.99Zm24.164,6.47c18.412,18.14-3.273,37.47-20.946,37.47,0,0,1.965,3.96,17.51,3.96a39.265,39.265,0,0,0,5.139-.34c0.048,0.03,17.032,6.43,17.032,6.43s-5.563-10.01-5.582-10.07c7.006-3.77,11.557-9.86,11.557-16.73C935.993,1050.73,924.128,1041.54,911.283,1041.46Z" transform="translate(-858.969 -1035)"/>
</svg>
