<svg xmlns="http://www.w3.org/2000/svg" width="70" height="60.06" viewBox="0 0 70 60.06">
  <defs>
    <style>
      .cls-1 {
        fill: #fff;
        fill-rule: evenodd;
      }
    </style>
  </defs>
  <path id="speech_bubble_3" data-name="speech bubble 3" class="cls-1" d="M1211.97,1034.98c19.34,0,35.01,11.72,35.01,26.17s-15.67,26.18-35.01,26.18a46.115,46.115,0,0,1-6.39-.44c-0.06.04-21.18,8.13-21.18,8.13s6.92-12.64,6.94-12.72c-8.71-4.76-14.38-12.46-14.38-21.15C1176.96,1046.7,1192.64,1034.98,1211.97,1034.98Zm-16.8,23.37a2.8,2.8,0,1,1-2.79,2.8A2.791,2.791,0,0,1,1195.17,1058.35Zm11.08,0.12a2.8,2.8,0,1,1-2.78,2.8A2.793,2.793,0,0,1,1206.25,1058.47Zm11.26,0a2.8,2.8,0,1,1-2.78,2.8A2.793,2.793,0,0,1,1217.51,1058.47Zm11.15,0a2.8,2.8,0,1,1-2.79,2.8A2.785,2.785,0,0,1,1228.66,1058.47Z" transform="translate(-1176.97 -1034.97)"/>
</svg>
