<svg xmlns="http://www.w3.org/2000/svg" xmlns:xlink="http://www.w3.org/1999/xlink" xmlns:a="http://ns.adobe.com/AdobeSVGViewerExtensions/3.0/" version="1.1" x="0px" y="0px" viewBox="-64.5 -53.295 1024 1024" enable-background="new -64.5 -53.295 1024 1024" xml:space="preserve"><path display="none" d="M888.08,460.285c0,0.141,0,0.279-0.01,0.42c0.12,8.2-2.95,16.43-9.21,22.69l-265.17,265.17  c-12.301,12.3-32.25,12.3-44.551,0c-6.149-6.15-9.22-14.21-9.22-22.28c0-8.061,3.07-15.87,9.22-22.021l211.811-211.56H31.5  c-17.4,0-31.5-14.35-31.5-31.75c0-8.7,3.52-16.455,9.22-22.155c5.7-5.7,13.58-9.095,22.28-9.095h749.45L569.14,217.645  c-12.3-12.3-12.3-32.365,0-44.675c12.311-12.3,32.25-12.363,44.551-0.063l265.17,265.139  C885.01,444.196,888.08,452.225,888.08,460.285z"></path><path display="none" d="M0,460.285c0,0.141,0,0.279,0.01,0.42c-0.12,8.2,2.95,16.43,9.21,22.69l265.17,265.17  c12.301,12.3,32.25,12.3,44.551,0c6.149-6.15,9.22-14.21,9.22-22.28c0-8.061-3.07-15.87-9.22-22.021L107.13,492.705h749.45  c17.399,0,31.5-14.35,31.5-31.75c0-8.7-3.521-16.455-9.221-22.155c-5.699-5.7-13.579-9.095-22.279-9.095H107.13l211.811-212.06  c12.3-12.3,12.3-32.365,0-44.675c-12.311-12.3-32.25-12.363-44.551-0.063L9.22,438.046C3.07,444.196,0,452.225,0,460.285z"></path><path display="none" d="M701.4,458.205c0.318,15.55-5.461,31.2-17.33,43.07L287.29,898.055c-23.14,23.141-60.67,23.141-83.81,0  l-0.01-0.02c-23.15-23.14-23.15-60.66,0-83.8l356.03-356.03l-356.03-356.03c-23.15-23.14-23.15-60.66,0-83.8l0.01-0.02  c23.14-23.14,60.67-23.14,83.81,0l396.781,396.78C695.939,427.005,701.719,442.655,701.4,458.205z"></path><path display="none" d="M186.12,457.205c-0.319,15.55,5.46,31.2,17.33,43.07L600.23,897.055c23.14,23.141,60.67,23.141,83.81,0  l0.01-0.02c23.15-23.14,23.15-60.66,0-83.8l-356.03-356.03l356.03-356.03c23.15-23.14,23.15-60.66,0-83.8l-0.01-0.02  c-23.14-23.14-60.67-23.14-83.81,0L203.45,414.135C191.58,426.005,185.8,441.655,186.12,457.205z"></path><path display="none" d="M819.4,457.205c0.318,15.55-5.461,31.2-17.33,43.07L405.289,897.055c-23.14,23.141-60.669,23.141-83.81,0  l-0.01-0.02c-23.15-23.14-23.15-60.66,0-83.8l356.03-356.03l-356.03-356.03c-23.15-23.14-23.15-60.66,0-83.8l0.01-0.02  c23.14-23.14,60.67-23.14,83.81,0l396.781,396.78C813.939,426.005,819.719,441.655,819.4,457.205z"></path><path display="none" d="M443.404,457.205c0.225,10.963-3.851,21.997-12.219,30.366L151.443,767.313  c-16.314,16.314-42.774,16.314-59.088,0l-0.007-0.015c-16.322-16.313-16.322-42.767,0-59.081L343.36,457.205L92.348,206.193  c-16.322-16.314-16.322-42.767,0-59.082l0.007-0.014c16.314-16.314,42.774-16.314,59.088,0l279.742,279.742  C439.554,435.208,443.629,446.242,443.404,457.205z"></path><path display="none" d="M80.119,457.205c-0.318,15.55,5.461,31.2,17.33,43.07L494.23,897.055c23.14,23.141,60.67,23.141,83.81,0  l0.01-0.02c23.15-23.14,23.15-60.66,0-83.8l-356.03-356.03l356.03-356.03c23.15-23.14,23.15-60.66,0-83.8l-0.01-0.02  c-23.14-23.14-60.67-23.14-83.81,0L97.449,414.135C85.58,426.005,79.801,441.655,80.119,457.205z"></path><path display="none" d="M456.115,457.205c-0.225,10.963,3.851,21.997,12.219,30.366l279.742,279.741  c16.313,16.314,42.773,16.314,59.088,0l0.007-0.015c16.322-16.313,16.322-42.767,0-59.081L556.16,457.205l251.011-251.012  c16.322-16.314,16.322-42.767,0-59.082l-0.007-0.014c-16.314-16.314-42.774-16.314-59.088,0L468.334,426.839  C459.966,435.208,455.891,446.242,456.115,457.205z"></path><polygon display="none" points="192.557,96.192 268.892,19.858 714.848,465.813 268.892,911.769 192.557,835.434 562.178,465.813   "></polygon><polygon points="714.847,96.192 638.512,19.858 192.557,465.813 638.512,911.769 714.847,835.434 345.227,465.813 "></polygon></svg>