<svg xmlns="http://www.w3.org/2000/svg" xmlns:xlink="http://www.w3.org/1999/xlink" version="1.1" x="0px" y="0px" viewBox="0 0 100 100" enable-background="new 0 0 100 100" xml:space="preserve"><path d="M50,0C22.4,0,0,22.4,0,50s22.4,50,50,50s50-22.4,50-50S77.6,0,50,0z M73.3,36.2c0,0,0,25.9,0,26.3c0,0.3,0,0.7,0,0.7  c-0.4,3.4-3.7,6.5-8.3,7.5c-5.4,1.2-10.5-1.1-11.4-5.1c-0.9-4,2.8-8.1,8.2-9.3c2.3-0.5,4.6-0.4,6.5,0.3V37.8l-24.8,6.6  c0,2.6,0,25.7,0,26c0,0.3,0,0.7,0,0.7c-0.4,3.4-3.7,6.5-8.3,7.5c-5.4,1.2-10.5-1.1-11.4-5.1c-0.9-4,2.8-8.1,8.2-9.3  c2.3-0.5,4.6-0.4,6.5,0.3V31.5c0-1.4,1.1-2.5,2.5-2.5l28.7-7.7c0.4-0.2,0.7-0.3,1.2-0.3c1.4,0,2.5,1.1,2.5,2.5V36.2z"></path></svg>